<svg xmlns="http://www.w3.org/2000/svg" xmlns:xlink="http://www.w3.org/1999/xlink" viewBox="0 0 123.24 132.46"><defs><style>.cls-1{isolation:isolate;}.cls-2{fill:url(#Безымянный_градиент_187);}.cls-10,.cls-11,.cls-12,.cls-3,.cls-4,.cls-5,.cls-6,.cls-7,.cls-8,.cls-9{fill-rule:evenodd;}.cls-3{fill:url(#Безымянный_градиент_187-2);}.cls-4{fill:url(#Безымянный_градиент_165);}.cls-5{fill:url(#Безымянный_градиент_389);}.cls-6,.cls-8{opacity:0.88;}.cls-12,.cls-6,.cls-8{mix-blend-mode:multiply;}.cls-6{fill:url(#Безымянный_градиент_172);}.cls-12,.cls-7{opacity:0.5;}.cls-7{mix-blend-mode:screen;fill:url(#Безымянный_градиент_401);}.cls-8{fill:#e79cbd;}.cls-9{fill:url(#Безымянный_градиент_272);}.cls-10{fill:url(#Безымянный_градиент_272-2);}.cls-11{fill:#4534ff;}.cls-12{fill:#22006b;}.cls-13{font-size:15.09px;fill:#421b47;font-family:GrandHotel-Regular, Grand Hotel;}</style><linearGradient id="Безымянный_градиент_187" y1="66.12" x2="123.15" y2="66.12" gradientTransform="translate(117.34 -4.97) rotate(81.07)" gradientUnits="userSpaceOnUse"><stop offset="0" stop-color="#f9d5d1"/><stop offset="0.06" stop-color="#fad7d2"/><stop offset="0.53" stop-color="#fee3db"/><stop offset="1" stop-color="#ffe7de"/></linearGradient><linearGradient id="Безымянный_градиент_187-2" y1="66.12" x2="123.16" y2="66.12" gradientTransform="matrix(1, 0, 0, 1, 0, 0)" xlink:href="#Безымянный_градиент_187"/><radialGradient id="Безымянный_градиент_165" cx="61.58" cy="66.12" r="44.12" gradientUnits="userSpaceOnUse"><stop offset="0" stop-color="#ffc500"/><stop offset="0.28" stop-color="#ffbd00"/><stop offset="0.71" stop-color="#ffa700"/><stop offset="1" stop-color="#ff9500"/></radialGradient><linearGradient id="Безымянный_градиент_389" x1="60.98" y1="68.28" x2="61.13" y2="67.96" gradientUnits="userSpaceOnUse"><stop offset="0" stop-color="#13001d"/><stop offset="1" stop-color="#2f042f"/></linearGradient><linearGradient id="Безымянный_градиент_172" x1="61.58" y1="110.24" x2="61.58" y2="22" gradientUnits="userSpaceOnUse"><stop offset="0.02" stop-color="#fff"/><stop offset="0.99" stop-color="#cc93c0"/></linearGradient><linearGradient id="Безымянный_градиент_401" x1="61.58" y1="110.24" x2="61.58" y2="23.91" gradientUnits="userSpaceOnUse"><stop offset="0" stop-color="#a188b0"/><stop offset="0.01" stop-color="#9880a6"/><stop offset="0.08" stop-color="#74627f"/><stop offset="0.14" stop-color="#55485d"/><stop offset="0.22" stop-color="#3a3140"/><stop offset="0.3" stop-color="#251f28"/><stop offset="0.4" stop-color="#141116"/><stop offset="0.51" stop-color="#090709"/><stop offset="0.66" stop-color="#020202"/><stop offset="0.99"/></linearGradient><linearGradient id="Безымянный_градиент_272" x1="14.94" y1="133.02" x2="12.26" y2="-13.89" gradientTransform="translate(16.44 -13.92) rotate(12.52)" gradientUnits="userSpaceOnUse"><stop offset="0" stop-color="#d9023d"/><stop offset="1" stop-color="#ff131d"/></linearGradient><linearGradient id="Безымянный_градиент_272-2" x1="111.68" y1="128.13" x2="108.98" y2="-19.67" xlink:href="#Безымянный_градиент_272"/></defs><g class="cls-1"><g id="Layer_2" data-name="Layer 2"><g id="objects"><circle class="cls-2" cx="61.58" cy="66.12" r="61.58" transform="translate(-13.3 116.69) rotate(-81.07)"/><path class="cls-3" d="M61.24,68.12l-.09,0,.07-.08-.1,0,0-.08-.07.06,0-.1,0,.1L61,68l0,.08-.1,0,.07.08-.07,0,.07,0-.06.08.09,0h0l0,0h0l0,0h0l.1,0-.07-.08Zm0,0-.09,0,.07-.08-.1,0,0-.08-.07.06,0-.1,0,.1L61,68l0,.08-.1,0,.07.08-.07,0,.07,0-.06.08.09,0h0l0,0h0l0,0h0l.1,0-.07-.08Zm0,0-.09,0,.07-.08-.1,0,0-.08-.07.06,0-.1,0,.1L61,68l0,.08-.1,0,.07.08-.07,0,.07,0-.06.08.09,0h0l0,0h0l0,0h0l.1,0-.07-.08Zm0,0-.09,0,.07-.08-.1,0,0-.08-.07.06,0-.1,0,.1L61,68l0,.08-.1,0,.07.08-.07,0,.07,0-.06.08.09,0h0l0,0h0l0,0h0l.1,0-.07-.08Zm0,0-.09,0,.07-.08-.1,0,0-.08-.07.06,0-.1,0,.1L61,68l0,.08-.1,0,.07.08-.07,0,.07,0-.06.08.09,0h0l0,0h0l0,0h0l.1,0-.07-.08Zm0,0-.09,0,.07-.08-.1,0,0-.08-.07.06,0-.1,0,.1L61,68l0,.08-.1,0,.07.08-.07,0,.07,0-.06.08.09,0h0l0,0h0l0,0h0l.1,0-.07-.08Zm0,0-.09,0,.07-.08-.1,0,0-.08-.07.06,0-.1,0,.1L61,68l0,.08-.1,0,.07.08-.07,0,.07,0-.06.08.09,0h0l0,0h0l0,0h0l.1,0-.07-.08Zm0,0-.09,0,.07-.08-.1,0,0-.08-.07.06,0-.1,0,.1L61,68l0,.08-.1,0,.07.08-.07,0,.07,0-.06.08.09,0h0l0,0h0l0,0h0l.1,0-.07-.08Zm0,0-.09,0,.07-.08-.1,0,0-.08-.07.06,0-.1,0,.1L61,68l0,.08-.1,0,.07.08-.07,0,.07,0-.06.08.09,0h0l0,0h0l0,0h0l.1,0-.07-.08Zm0,0-.09,0,.07-.08-.1,0,0-.08-.07.06,0-.1,0,.1L61,68l0,.08-.1,0,.07.08-.07,0,.07,0-.06.08.09,0h0l0,0h0l0,0h0l.1,0-.07-.08Zm61.54-8.86a59.54,59.54,0,0,0-1.84-9.5.29.29,0,0,0,0-.09,61.47,61.47,0,0,0-15.57-26.85l0,0A61.61,61.61,0,0,0,3.21,46.48c-.52,1.53-1,3.1-1.37,4.69A61.78,61.78,0,0,0,1,77a60.18,60.18,0,0,0,2.29,8.9l0,.08a61.38,61.38,0,0,0,16,24.86l0,0a61.59,61.59,0,0,0,99.4-21.83c.54-1.32,1-2.67,1.47-4a61.38,61.38,0,0,0,3-18.93A62.12,62.12,0,0,0,122.78,59.26ZM105,80.7A45.82,45.82,0,0,1,15.75,66.12,45.79,45.79,0,0,1,27.67,35.28,45.85,45.85,0,0,1,105,80.7ZM61.15,68.1l.07-.08-.1,0,0-.08-.07.06,0-.1,0,.1L61,68l0,.08-.1,0,.07.08-.07,0,.07,0-.06.08.09,0h0l0,0h0l0,0h0l.1,0-.07-.08.09,0Zm.09,0-.09,0,.07-.08-.1,0,0-.08-.07.06,0-.1,0,.1L61,68l0,.08-.1,0,.07.08-.07,0,.07,0-.06.08.09,0h0l0,0h0l0,0h0l.1,0-.07-.08Zm0,0-.09,0,.07-.08-.1,0,0-.08-.07.06,0-.1,0,.1L61,68l0,.08-.1,0,.07.08-.07,0,.07,0-.06.08.09,0h0l0,0h0l0,0h0l.1,0-.07-.08Zm0,0-.09,0,.07-.08-.1,0,0-.08-.07.06,0-.1,0,.1L61,68l0,.08-.1,0,.07.08-.07,0,.07,0-.06.08.09,0h0l0,0h0l0,0h0l.1,0-.07-.08Zm0,0-.09,0,.07-.08-.1,0,0-.08-.07.06,0-.1,0,.1L61,68l0,.08-.1,0,.07.08-.07,0,.07,0-.06.08.09,0h0l0,0h0l0,0h0l.1,0-.07-.08Zm0,0-.09,0,.07-.08-.1,0,0-.08-.07.06,0-.1,0,.1L61,68l0,.08-.1,0,.07.08-.07,0,.07,0-.06.08.09,0h0l0,0h0l0,0h0l.1,0-.07-.08Zm0,0-.09,0,.07-.08-.1,0,0-.08-.07.06,0-.1,0,.1L61,68l0,.08-.1,0,.07.08-.07,0,.07,0-.06.08.09,0h0l0,0h0l0,0h0l.1,0-.07-.08Zm0,0-.09,0,.07-.08-.1,0,0-.08-.07.06,0-.1,0,.1L61,68l0,.08-.1,0,.07.08-.07,0,.07,0-.06.08.09,0h0l0,0h0l0,0h0l.1,0-.07-.08Zm0,0-.09,0,.07-.08-.1,0,0-.08-.07.06,0-.1,0,.1L61,68l0,.08-.1,0,.07.08-.07,0,.07,0-.06.08.09,0h0l0,0h0l0,0h0l.1,0-.07-.08Z"/><path class="cls-4" d="M61.34,67.55l-.07,0,.06,0-.08,0,0,0-.05,0v-.08l0,.08,0,0,0,0-.08,0,.06,0-.06,0,.06,0,0,.05h.16l.08,0-.06-.05Zm0,0-.07,0,.06,0-.08,0,0,0-.05,0v-.08l0,.08,0,0,0,0-.08,0,.06,0-.06,0,.06,0,0,.05h.16l.08,0-.06-.05Zm0,0-.07,0,.06,0-.08,0,0,0-.05,0v-.08l0,.08,0,0,0,0-.08,0,.06,0-.06,0,.06,0,0,.05h.16l.08,0-.06-.05Zm0,0-.07,0,.06,0-.08,0,0,0-.05,0v-.08l0,.08,0,0,0,0-.08,0,.06,0-.06,0,.06,0,0,.05h.16l.08,0-.06-.05Zm0,0-.07,0,.06,0-.08,0,0,0-.05,0v-.08l0,.08,0,0,0,0-.08,0,.06,0-.06,0,.06,0,0,.05h.16l.08,0-.06-.05Zm0,0-.07,0,.06,0-.08,0,0,0-.05,0v-.08l0,.08,0,0,0,0-.08,0,.06,0-.06,0,.06,0,0,.05h.16l.08,0-.06-.05ZM104.1,54.33a44.23,44.23,0,1,0,1.6,11.79A44.07,44.07,0,0,0,104.1,54.33Zm-20,35.72A32.89,32.89,0,0,1,61.58,99a32.36,32.36,0,0,1-8.11-1,32.83,32.83,0,0,1,8.11-64.66A32.91,32.91,0,0,1,85,43.14a32.73,32.73,0,0,1,9.38,23A32.69,32.69,0,0,1,84.07,90.05ZM61.27,67.53l.06,0-.08,0,0,0-.05,0v-.08l0,.08,0,0,0,0-.08,0,.06,0-.06,0,.06,0,0,.05h.16l.08,0-.06-.05.07,0Zm.07,0-.07,0,.06,0-.08,0,0,0-.05,0v-.08l0,.08,0,0,0,0-.08,0,.06,0-.06,0,.06,0,0,.05h.16l.08,0-.06-.05Zm0,0-.07,0,.06,0-.08,0,0,0-.05,0v-.08l0,.08,0,0,0,0-.08,0,.06,0-.06,0,.06,0,0,.05h.16l.08,0-.06-.05Zm0,0-.07,0,.06,0-.08,0,0,0-.05,0v-.08l0,.08,0,0,0,0-.08,0,.06,0-.06,0,.06,0,0,.05h.16l.08,0-.06-.05Zm0,0-.07,0,.06,0-.08,0,0,0-.05,0v-.08l0,.08,0,0,0,0-.08,0,.06,0-.06,0,.06,0,0,.05h.16l.08,0-.06-.05Z"/><polygon class="cls-5" points="61.23 68.22 61.13 68.18 61.15 68.26 61.08 68.21 61.06 68.31 61.03 68.22 60.97 68.27 60.99 68.19 60.9 68.22 60.97 68.14 60.89 68.12 60.97 68.09 60.89 68.01 60.99 68.05 60.97 67.97 61.03 68.03 61.06 67.92 61.08 68.03 61.15 67.97 61.13 68.05 61.23 68.01 61.15 68.09 61.24 68.12 61.15 68.14 61.23 68.22"/><path class="cls-6" d="M61.58,22A44.12,44.12,0,1,0,105.7,66.12,44.12,44.12,0,0,0,61.58,22Zm0,84.25a40.13,40.13,0,1,1,40.13-40.13A40.13,40.13,0,0,1,61.58,106.25Z"/><path class="cls-7" d="M61.58,23.91c-24.37,0-44.12,17.84-44.12,42.21a44.12,44.12,0,0,0,88.24,0C105.7,41.75,85.94,23.91,61.58,23.91Zm-.35,83.39c-22.17,0-39.78-19-39.78-41.18a40.13,40.13,0,1,1,80.26,0C101.71,88.28,83.39,107.3,61.23,107.3Z"/><path class="cls-8" d="M21.45,47.78S33.92,23.91,61.58,23.91s41.77,28,41.77,28S93.79,22,61.58,22,21.45,47.78,21.45,47.78Z"/><path class="cls-9" d="M15.86,97.39l-5.08,3.31,0,0A61.37,61.37,0,0,1,.53,72.93l6.35-.51a6,6,0,0,1,6.37,4.69,50,50,0,0,0,4.6,12.33A6.06,6.06,0,0,1,15.86,97.39Z"/><path class="cls-10" d="M123.24,63l-5.81.47a6.07,6.07,0,0,1-6.52-5,49.13,49.13,0,0,0-4.35-14,6.09,6.09,0,0,1,2.1-7.77l5.2-3.39a61.49,61.49,0,0,1,9.38,29.59Z"/><path class="cls-11" d="M16.52,45.3a49.3,49.3,0,0,0-4,13.71A6,6,0,0,1,6.1,64.1L.21,63.66A60.77,60.77,0,0,1,1.63,52.79a61.81,61.81,0,0,1,5-14.2c.74-1.46,1.52-2.9,2.36-4.28l5.29,3.4A6,6,0,0,1,16.52,45.3Z"/><path class="cls-11" d="M121.86,79.48a61.59,61.59,0,0,1-7,17.84c-.73,1.23-1.5,2.44-2.31,3.61l-5.06-3.25a6,6,0,0,1-2-8,49.56,49.56,0,0,0,4.8-12.74,6,6,0,0,1,6.33-4.69l6.37.47A64.29,64.29,0,0,1,121.86,79.48Z"/><path class="cls-12" d="M2.05,81.87s12.35,43.89,59.61,43.46c49.72-.45,59.61-44,59.61-44S110.89,127.7,61.58,127.7,2.05,81.87,2.05,81.87Z"/><text class="cls-13" transform="translate(46.03 19.49) rotate(-14.03)">C</text><text class="cls-13" transform="translate(52.9 17.82) rotate(-7.05)">a</text><text class="cls-13" transform="translate(57.94 17.19) rotate(-1.44)">s</text><text class="cls-13" transform="translate(62.56 17.11) rotate(2.69)">i</text><text class="cls-13" transform="matrix(0.99, 0.13, -0.13, 0.99, 64.97, 17.16)">n</text><text class="cls-13" transform="translate(70.1 17.79) rotate(13.33)">o</text><text class="cls-13" transform="matrix(0.95, 0.31, -0.31, 0.95, 75.25, 19.05)"> </text><text class="cls-13" transform="translate(77.57 112.59) rotate(165.36)">C</text><text class="cls-13" transform="matrix(-0.99, 0.13, -0.13, -0.99, 70.72, 114.33)">a</text><text class="cls-13" transform="translate(65.68 115.01) rotate(177.94)">s</text><text class="cls-13" transform="translate(61.06 115.14) rotate(-177.93)">i</text><text class="cls-13" transform="translate(58.65 115.12) rotate(-173.42)">n</text><text class="cls-13" transform="translate(53.51 114.55) rotate(-167.29)">o</text><text class="cls-13" transform="translate(48.35 113.34) rotate(-162.36)"> </text></g></g></g></svg>