<svg xmlns="http://www.w3.org/2000/svg" xmlns:xlink="http://www.w3.org/1999/xlink" viewBox="0 0 123.15 123.16"><defs><style>.cls-1{isolation:isolate;}.cls-2{fill:url(#Безымянный_градиент_272);}.cls-10,.cls-11,.cls-12,.cls-13,.cls-14,.cls-17,.cls-3,.cls-4,.cls-5,.cls-6,.cls-7,.cls-8,.cls-9{fill-rule:evenodd;}.cls-3{fill:url(#Безымянный_градиент_272-2);}.cls-4{fill:url(#Безымянный_градиент_389);}.cls-5,.cls-7{opacity:0.88;}.cls-14,.cls-5,.cls-7{mix-blend-mode:multiply;}.cls-5{fill:url(#Безымянный_градиент_74);}.cls-14,.cls-6{opacity:0.5;}.cls-6{mix-blend-mode:screen;fill:url(#Безымянный_градиент_80);}.cls-7{fill:#ce838d;}.cls-8{fill:url(#Безымянный_градиент_187);}.cls-9{fill:url(#Безымянный_градиент_187-2);}.cls-10{fill:url(#Безымянный_градиент_187-3);}.cls-11{fill:url(#Безымянный_градиент_187-4);}.cls-12{fill:url(#Безымянный_градиент_187-5);}.cls-13{fill:url(#Безымянный_градиент_187-6);}.cls-14{fill:#22006b;}.cls-15{fill:#fff;}.cls-16,.cls-17{fill:#ffa700;}.cls-18{font-size:45.45px;fill:#f7f708;font-family:MyriadPro-Regular, Myriad Pro;}</style><linearGradient id="Безымянный_градиент_272" y1="61.58" x2="123.15" y2="61.58" gradientUnits="userSpaceOnUse"><stop offset="0" stop-color="#d9023d"/><stop offset="1" stop-color="#ff131d"/></linearGradient><linearGradient id="Безымянный_градиент_272-2" x1="61.58" y1="123.16" x2="61.58" y2="0.01" xlink:href="#Безымянный_градиент_272"/><linearGradient id="Безымянный_градиент_389" x1="61.49" y1="63.74" x2="61.64" y2="63.42" gradientUnits="userSpaceOnUse"><stop offset="0" stop-color="#13001d"/><stop offset="1" stop-color="#2f042f"/></linearGradient><linearGradient id="Безымянный_градиент_74" x1="61.58" y1="105.7" x2="61.58" y2="17.46" gradientUnits="userSpaceOnUse"><stop offset="0.45" stop-color="#fff"/><stop offset="0.99" stop-color="#a21645"/></linearGradient><linearGradient id="Безымянный_градиент_80" x1="61.58" y1="105.7" x2="61.58" y2="19.37" gradientUnits="userSpaceOnUse"><stop offset="0" stop-color="#ffb561"/><stop offset="0.04" stop-color="#d49651"/><stop offset="0.1" stop-color="#a87740"/><stop offset="0.16" stop-color="#805b31"/><stop offset="0.22" stop-color="#5d4223"/><stop offset="0.29" stop-color="#402d18"/><stop offset="0.36" stop-color="#281d0f"/><stop offset="0.45" stop-color="#161008"/><stop offset="0.55" stop-color="#090704"/><stop offset="0.69" stop-color="#020101"/><stop offset="0.99"/></linearGradient><linearGradient id="Безымянный_градиент_187" x1="61.58" y1="11.51" x2="61.58" gradientUnits="userSpaceOnUse"><stop offset="0" stop-color="#f9d5d1"/><stop offset="0.06" stop-color="#fad7d2"/><stop offset="0.53" stop-color="#fee3db"/><stop offset="1" stop-color="#ffe7de"/></linearGradient><linearGradient id="Безымянный_градиент_187-2" x1="910.01" y1="-161.06" x2="910.01" y2="-172.56" gradientTransform="translate(971.59 -49.41) rotate(180)" xlink:href="#Безымянный_градиент_187"/><linearGradient id="Безымянный_градиент_187-3" x1="387.29" y1="306.65" x2="387.29" y2="295.14" gradientTransform="matrix(0.52, 0.86, -0.86, 0.52, 165.95, -454.49)" xlink:href="#Безымянный_градиент_187"/><linearGradient id="Безымянный_градиент_187-4" x1="585.07" y1="-455.29" x2="585.07" y2="-466.8" gradientTransform="matrix(-0.52, -0.86, 0.86, -0.52, 711.3, 351.94)" xlink:href="#Безымянный_градиент_187"/><linearGradient id="Безымянный_градиент_187-5" x1="822.18" y1="163.95" x2="822.18" y2="152.44" gradientTransform="matrix(-0.51, 0.86, -0.86, -0.51, 662.07, -539.47)" xlink:href="#Безымянный_градиент_187"/><linearGradient id="Безымянный_градиент_187-6" x1="149.08" y1="-314.58" x2="149.08" y2="-326.09" gradientTransform="matrix(0.51, -0.86, 0.86, 0.51, 214.37, 323.98)" xlink:href="#Безымянный_градиент_187"/></defs><g class="cls-1"><g id="Layer_2" data-name="Layer 2"><g id="objects"><circle class="cls-2" cx="61.58" cy="61.58" r="61.58"/><path class="cls-3" d="M61.23,63.57l-.09,0,.08-.08-.1,0,0-.08-.07,0,0-.1,0,.1-.07,0,0,.08-.1,0,.08.08-.08,0,.08,0-.07.07.09,0h.14l.1,0-.08-.07Zm0,0-.09,0,.08-.08-.1,0,0-.08-.07,0,0-.1,0,.1-.07,0,0,.08-.1,0,.08.08-.08,0,.08,0-.07.07.09,0h.14l.1,0-.08-.07Zm0,0-.09,0,.08-.08-.1,0,0-.08-.07,0,0-.1,0,.1-.07,0,0,.08-.1,0,.08.08-.08,0,.08,0-.07.07.09,0h.14l.1,0-.08-.07Zm0,0-.09,0,.08-.08-.1,0,0-.08-.07,0,0-.1,0,.1-.07,0,0,.08-.1,0,.08.08-.08,0,.08,0-.07.07.09,0h.14l.1,0-.08-.07Zm0,0-.09,0,.08-.08-.1,0,0-.08-.07,0,0-.1,0,.1-.07,0,0,.08-.1,0,.08.08-.08,0,.08,0-.07.07.09,0h.14l.1,0-.08-.07Zm0,0-.09,0,.08-.08-.1,0,0-.08-.07,0,0-.1,0,.1-.07,0,0,.08-.1,0,.08.08-.08,0,.08,0-.07.07.09,0h.14l.1,0-.08-.07Zm59.69-18.45A61.59,61.59,0,0,0,1.84,46.62a61.57,61.57,0,0,0,59.73,76.54,61.61,61.61,0,0,0,59.35-78ZM93,95a45.85,45.85,0,1,1-31.4-79.22A45.8,45.8,0,0,1,107.4,61.58,45.62,45.62,0,0,1,93,95ZM61.14,63.55l.08-.08-.1,0,0-.08-.07,0,0-.1,0,.1-.07,0,0,.08-.1,0,.08.08-.08,0,.08,0-.07.07.09,0h.14l.1,0-.08-.07.09,0Zm.09,0-.09,0,.08-.08-.1,0,0-.08-.07,0,0-.1,0,.1-.07,0,0,.08-.1,0,.08.08-.08,0,.08,0-.07.07.09,0h.14l.1,0-.08-.07Zm0,0-.09,0,.08-.08-.1,0,0-.08-.07,0,0-.1,0,.1-.07,0,0,.08-.1,0,.08.08-.08,0,.08,0-.07.07.09,0h.14l.1,0-.08-.07Zm0,0-.09,0,.08-.08-.1,0,0-.08-.07,0,0-.1,0,.1-.07,0,0,.08-.1,0,.08.08-.08,0,.08,0-.07.07.09,0h.14l.1,0-.08-.07Zm0,0-.09,0,.08-.08-.1,0,0-.08-.07,0,0-.1,0,.1-.07,0,0,.08-.1,0,.08.08-.08,0,.08,0-.07.07.09,0h.14l.1,0-.08-.07Z"/><polygon class="cls-4" points="61.74 63.67 61.64 63.64 61.66 63.72 61.59 63.66 61.57 63.77 61.55 63.67 61.48 63.73 61.5 63.65 61.41 63.67 61.48 63.6 61.4 63.57 61.48 63.55 61.4 63.47 61.5 63.51 61.48 63.43 61.55 63.48 61.57 63.38 61.59 63.48 61.66 63.43 61.64 63.51 61.74 63.47 61.66 63.55 61.75 63.57 61.66 63.6 61.74 63.67"/><path class="cls-5" d="M61.58,17.46A44.12,44.12,0,1,0,105.7,61.58,44.12,44.12,0,0,0,61.58,17.46Zm0,84.25a40.13,40.13,0,1,1,40.13-40.13A40.13,40.13,0,0,1,61.58,101.71Z"/><path class="cls-6" d="M61.58,19.37c-24.37,0-44.12,17.84-44.12,42.21a44.12,44.12,0,0,0,88.24,0C105.7,37.21,85.94,19.37,61.58,19.37Zm-.35,83.39c-22.17,0-39.78-19-39.78-41.18a40.13,40.13,0,0,1,80.26,0C101.71,83.74,83.39,102.76,61.23,102.76Z"/><path class="cls-7" d="M20.63,43.24S33.1,19.37,60.76,19.37s41.77,28,41.77,28S93,17.46,60.76,17.46,20.63,43.24,20.63,43.24Z"/><path class="cls-8" d="M44.62,2.37V9.42s6,2.09,17,2.09c11.31,0,17-2.09,17-2.09v-7A61.83,61.83,0,0,0,44.62,2.37Z"/><path class="cls-9" d="M78.53,120.79v-7.05s-6-2.09-17-2.09c-11.32,0-17,2.09-17,2.09v7A61.74,61.74,0,0,0,78.53,120.79Z"/><path class="cls-10" d="M103.43,16.39l-6,3.66s1.34,6.24,7,15.58C110.26,45.31,115,49.05,115,49.05l6-3.65A61.92,61.92,0,0,0,103.43,16.39Z"/><path class="cls-11" d="M19.72,106.77l6-3.66s-1.35-6.24-7-15.58C12.89,77.85,8.18,74.1,8.18,74.1l-6,3.66A61.92,61.92,0,0,0,19.72,106.77Z"/><path class="cls-12" d="M121.24,76.9l-6.09-3.57s-4.86,4.15-10.38,13.57C99.05,96.66,98,102.59,98,102.59l6.08,3.56A61.86,61.86,0,0,0,121.24,76.9Z"/><path class="cls-13" d="M1.92,46.26,8,49.83s4.85-4.16,10.37-13.58c5.72-9.76,6.78-15.68,6.78-15.68L19.08,17A61.76,61.76,0,0,0,1.92,46.26Z"/><path class="cls-14" d="M2,77.33s12.35,43.88,59.62,43.46c49.72-.45,59.61-44.06,59.61-44.06s-10.38,46.43-59.7,46.43S2,77.33,2,77.33Z"/><path class="cls-15" d="M49.11,28.94a2.71,2.71,0,0,1,.18.72,2,2,0,0,1,0,.6,1.57,1.57,0,0,1-.16.49,1.67,1.67,0,0,1-.25.38,1.58,1.58,0,0,1-.3.28l-.29.18.47,1-1,.49c-.2-.4-.31-.6-.51-1-.42.21-.63.32-1,.55l-.51-.91c.85-.48,1.28-.7,2.15-1.1l.09-.06a.75.75,0,0,0,.11-.13.93.93,0,0,0,.08-.22.8.8,0,0,0,0-.31,23.31,23.31,0,0,0-2.69,1.35l-.23.09a.88.88,0,0,1-.23,0,.5.5,0,0,1-.2-.08.54.54,0,0,1-.15-.15,2.84,2.84,0,0,1-.28-.63,2.24,2.24,0,0,1-.07-.55,1.71,1.71,0,0,1,.08-.47,2.57,2.57,0,0,1,.16-.37,2,2,0,0,1,.24-.33l.24-.23.21-.15.12-.07-.51-1L46,26.73l.47,1c.49-.23.73-.33,1.23-.54l.4,1c-1,.39-1.42.61-2.34,1.08l-.09.06a.53.53,0,0,0-.11.14.72.72,0,0,0-.08.22.7.7,0,0,0,0,.32,25.68,25.68,0,0,1,2.81-1.33,1.14,1.14,0,0,1,.25-.06.78.78,0,0,1,.22,0,.59.59,0,0,1,.19.11A.57.57,0,0,1,49.11,28.94Z"/><path class="cls-15" d="M57.1,30.25a23.09,23.09,0,0,0-6,1.4l-.72-2a1.69,1.69,0,0,1-.08-.34,1.8,1.8,0,0,1,0-.4,1.59,1.59,0,0,1,.12-.41,1.37,1.37,0,0,1,.26-.4,1.77,1.77,0,0,1,.41-.34,2.21,2.21,0,0,1,.6-.26,29.29,29.29,0,0,1,3-.71.6.6,0,0,0,.39-.19.4.4,0,0,0,.08-.36c0-.21-.05-.31-.08-.51a.47.47,0,0,0-.2-.34.63.63,0,0,0-.44,0A27.34,27.34,0,0,0,50,26.45c-.15-.45-.23-.67-.37-1.11a27.59,27.59,0,0,1,4.69-1.2,2.74,2.74,0,0,1,.69,0,2,2,0,0,1,.57.12,1.49,1.49,0,0,1,.43.24,1.52,1.52,0,0,1,.31.31,1.33,1.33,0,0,1,.19.35,1.15,1.15,0,0,1,.09.34c0,.21,0,.31.06.52a1.44,1.44,0,0,1-.1.79,1.66,1.66,0,0,1-.41.56,2.18,2.18,0,0,1-.57.38,2.4,2.4,0,0,1-.58.18,25.22,25.22,0,0,0-3,.69.54.54,0,0,0-.24.11.31.31,0,0,0-.12.14.51.51,0,0,0,0,.17,1.09,1.09,0,0,0,0,.18c.12.38.17.57.29.95A24.48,24.48,0,0,1,57,29.09C57,29.55,57.05,29.79,57.1,30.25Z"/><path class="cls-15" d="M66.5,28a2.47,2.47,0,0,1-.26.72,3.06,3.06,0,0,1-.44.58,3.39,3.39,0,0,1-.56.44,3.23,3.23,0,0,1-.65.31,3.85,3.85,0,0,1-.69.16,3,3,0,0,1-.73,0c-.87-.09-1.31-.12-2.18-.14a3.38,3.38,0,0,1-.72-.1,3,3,0,0,1-.67-.25,3.43,3.43,0,0,1-.6-.39,3,3,0,0,1-.5-.51,3.06,3.06,0,0,1-.35-.64,2.5,2.5,0,0,1-.17-.74c0-.42,0-.63-.08-1.05a2.16,2.16,0,0,1,.19-1.1,2.71,2.71,0,0,1,.69-.9,3.36,3.36,0,0,1,1.07-.59,4,4,0,0,1,1.3-.19c1.08,0,1.62.07,2.7.18a4.22,4.22,0,0,1,.87.19,3.38,3.38,0,0,1,.76.38,3.12,3.12,0,0,1,.62.51,2.87,2.87,0,0,1,.44.63,2.65,2.65,0,0,1,.22.71,2.16,2.16,0,0,1,0,.76C66.63,27.4,66.59,27.6,66.5,28Zm-1.15-1.28a1.29,1.29,0,0,0,0-.65,1.51,1.51,0,0,0-.33-.54,1.71,1.71,0,0,0-.55-.39,2.2,2.2,0,0,0-.69-.19c-1-.11-1.56-.14-2.61-.17a2.07,2.07,0,0,0-.7.09,1.89,1.89,0,0,0-.6.31,1.41,1.41,0,0,0-.41.5,1.23,1.23,0,0,0-.13.64c0,.42,0,.63,0,1.05a1.4,1.4,0,0,0,.16.63,1.53,1.53,0,0,0,.39.48,1.85,1.85,0,0,0,.53.31,1.9,1.9,0,0,0,.63.11,21.82,21.82,0,0,1,2.28.15A2.25,2.25,0,0,0,64,29a1.67,1.67,0,0,0,.56-.24,1.41,1.41,0,0,0,.41-.43,1.56,1.56,0,0,0,.22-.58C65.25,27.35,65.28,27.14,65.35,26.73Zm-.47-.94A.48.48,0,0,1,65,26a.42.42,0,0,1,0,.22.59.59,0,0,1-.13.19.8.8,0,0,1-.22.13,23.41,23.41,0,0,0-3.76,1.83.67.67,0,0,1-.18.07.37.37,0,0,1-.18,0,.73.73,0,0,1-.3-.06.59.59,0,0,1-.24-.2.51.51,0,0,1-.1-.21.55.55,0,0,1,0-.22.67.67,0,0,1,.09-.21.63.63,0,0,1,.19-.17,24.08,24.08,0,0,1,3.84-1.9.6.6,0,0,1,.27-.06.61.61,0,0,1,.27,0,.9.9,0,0,1,.24.12A.66.66,0,0,1,64.88,25.79Z"/><path class="cls-15" d="M75.68,31.58a2.3,2.3,0,0,1-.48.59,2.67,2.67,0,0,1-.61.4,2.82,2.82,0,0,1-.69.24,3.38,3.38,0,0,1-.72.07,3.68,3.68,0,0,1-.73-.07,3.62,3.62,0,0,1-.7-.24,21.68,21.68,0,0,0-2.06-.84A4.07,4.07,0,0,1,69,31.4a3.07,3.07,0,0,1-.56-.45,3.45,3.45,0,0,1-.45-.56,2.59,2.59,0,0,1-.31-.65,2.36,2.36,0,0,1-.14-.71,2.39,2.39,0,0,1,.07-.75c.1-.41.15-.62.26-1a2.17,2.17,0,0,1,.53-1,2.53,2.53,0,0,1,.94-.62,3.18,3.18,0,0,1,1.21-.22,3.84,3.84,0,0,1,1.32.24,26.55,26.55,0,0,1,2.54,1,3.85,3.85,0,0,1,.78.47,3.26,3.26,0,0,1,.62.61,3.21,3.21,0,0,1,.44.69,2.7,2.7,0,0,1,.23.75,2.36,2.36,0,0,1,0,.75,2.21,2.21,0,0,1-.27.71ZM75,30a1.28,1.28,0,0,0,.16-.63,1.71,1.71,0,0,0-.15-.62,1.93,1.93,0,0,0-.41-.55,2,2,0,0,0-.62-.4,25.79,25.79,0,0,0-2.45-1,2,2,0,0,0-.71-.14,1.7,1.7,0,0,0-.68.1,1.41,1.41,0,0,0-.54.34,1.37,1.37,0,0,0-.33.56l-.3,1a1.46,1.46,0,0,0,0,.65,1.7,1.7,0,0,0,.22.58,1.84,1.84,0,0,0,1,.77,22.06,22.06,0,0,1,2.15.88,2.25,2.25,0,0,0,.68.19,1.8,1.8,0,0,0,.62,0,1.49,1.49,0,0,0,.93-.76Zm-.16-1a.49.49,0,0,1,0,.24.54.54,0,0,1-.1.2.64.64,0,0,1-.19.13.76.76,0,0,1-.26.06,22.77,22.77,0,0,0-4.21.5.41.41,0,0,1-.19,0l-.18,0a.74.74,0,0,1-.27-.16.54.54,0,0,1-.16-.26.59.59,0,0,1,0-.23.51.51,0,0,1,.22-.38.51.51,0,0,1,.24-.1,23.48,23.48,0,0,1,4.3-.57l.28,0a.85.85,0,0,1,.25.13.72.72,0,0,1,.2.19A.66.66,0,0,1,74.81,28.93Z"/><path class="cls-15" d="M71.44,95.41a2.71,2.71,0,0,1-.18-.72,2,2,0,0,1,0-.6,1.41,1.41,0,0,1,.16-.49,1.62,1.62,0,0,1,.55-.66,1.35,1.35,0,0,1,.29-.18l-.47-1c.41-.18.61-.28,1-.49l.51,1c.42-.21.63-.33,1-.56l.51.92c-.84.47-1.28.69-2.15,1.1l-.09.06a.5.5,0,0,0-.11.13.84.84,0,0,0-.08.21.8.8,0,0,0,0,.31,24.28,24.28,0,0,0,2.7-1.35.63.63,0,0,1,.23-.08.55.55,0,0,1,.22,0,.7.7,0,0,1,.2.08.46.46,0,0,1,.15.16,2.55,2.55,0,0,1,.28.62,2.32,2.32,0,0,1,.07.56,1.78,1.78,0,0,1-.08.47,3.17,3.17,0,0,1-.16.37,1.57,1.57,0,0,1-.24.32,2.49,2.49,0,0,1-.24.23,1.05,1.05,0,0,1-.21.15l-.12.07.51,1c-.49.26-.74.38-1.24.61l-.47-1c-.49.23-.73.34-1.23.54l-.4-1c1-.4,1.42-.61,2.34-1.08l.09-.07a.4.4,0,0,0,.11-.14.48.48,0,0,0,.08-.22.66.66,0,0,0,0-.31,25.6,25.6,0,0,1-2.81,1.32.57.57,0,0,1-.25.06.78.78,0,0,1-.22,0,.45.45,0,0,1-.19-.11A.52.52,0,0,1,71.44,95.41Z"/><path class="cls-15" d="M63.45,94.09a22.89,22.89,0,0,0,6-1.39c.29.81.43,1.22.72,2a1.8,1.8,0,0,1,.08.35,1.7,1.7,0,0,1,0,.39,1.66,1.66,0,0,1-.12.42,1.51,1.51,0,0,1-.25.39,1.86,1.86,0,0,1-.42.35,2.28,2.28,0,0,1-.59.25,25.1,25.1,0,0,1-3.06.71.65.65,0,0,0-.39.19.44.44,0,0,0-.08.37l.08.51a.47.47,0,0,0,.2.33.68.68,0,0,0,.44,0,27.71,27.71,0,0,0,4.54-1.15c.14.44.22.66.36,1.11a28.53,28.53,0,0,1-4.69,1.19,2.77,2.77,0,0,1-.69,0,2.39,2.39,0,0,1-.57-.12,2.19,2.19,0,0,1-.43-.24,1.87,1.87,0,0,1-.31-.32,1.28,1.28,0,0,1-.19-.34,1.21,1.21,0,0,1-.09-.35l-.06-.52a1.5,1.5,0,0,1,.1-.78,1.74,1.74,0,0,1,.41-.57,1.93,1.93,0,0,1,.57-.37,2.45,2.45,0,0,1,.58-.19,25.18,25.18,0,0,0,3-.68.67.67,0,0,0,.24-.11.4.4,0,0,0,.12-.15.47.47,0,0,0,0-.17,1.09,1.09,0,0,0,0-.18c-.12-.38-.17-.57-.29-1a23.86,23.86,0,0,1-5.06,1.06C63.53,94.79,63.5,94.56,63.45,94.09Z"/><path class="cls-15" d="M54.05,96.33a2.31,2.31,0,0,1,.26-.71,2.53,2.53,0,0,1,.44-.58,3.45,3.45,0,0,1,.56-.45,3.83,3.83,0,0,1,.65-.3,3.11,3.11,0,0,1,.7-.16,3.47,3.47,0,0,1,.72,0c.87.09,1.31.12,2.19.15a3.37,3.37,0,0,1,.71.09,3.58,3.58,0,0,1,.67.26,2.65,2.65,0,0,1,.6.38,2.8,2.8,0,0,1,.85,1.15,2.58,2.58,0,0,1,.17.74l.08,1a2.18,2.18,0,0,1-.19,1.11,2.47,2.47,0,0,1-.69.89,3.25,3.25,0,0,1-1.07.59,3.76,3.76,0,0,1-1.3.19c-1.08,0-1.62-.06-2.7-.18a3.65,3.65,0,0,1-.87-.19,3.82,3.82,0,0,1-.76-.37,2.85,2.85,0,0,1-.62-.52,2.47,2.47,0,0,1-.44-.63,2.23,2.23,0,0,1-.21-.71,2.17,2.17,0,0,1,0-.76C53.92,97,54,96.74,54.05,96.33Zm1.15,1.29a1.25,1.25,0,0,0,0,.64,1.47,1.47,0,0,0,.33.55,2.08,2.08,0,0,0,.55.39,2,2,0,0,0,.69.18c1,.11,1.56.14,2.61.17a2,2,0,0,0,.7-.09,1.71,1.71,0,0,0,.6-.31,1.38,1.38,0,0,0,.41-.49,1.29,1.29,0,0,0,.13-.65c0-.42,0-.63,0-1.05a1.47,1.47,0,0,0-.16-.63,1.57,1.57,0,0,0-.92-.78,1.88,1.88,0,0,0-.62-.11c-.92,0-1.38-.06-2.29-.15a2,2,0,0,0-.69,0,1.5,1.5,0,0,0-1,.67,1.61,1.61,0,0,0-.22.59C55.3,97,55.27,97.2,55.2,97.62Zm.47.94a.51.51,0,0,1-.07-.23.41.41,0,0,1,0-.22.5.5,0,0,1,.13-.19.59.59,0,0,1,.23-.14A22.85,22.85,0,0,0,59.74,96a.71.71,0,0,1,.18-.08l.18,0a.6.6,0,0,1,.3.07.57.57,0,0,1,.24.19.51.51,0,0,1,.1.21.6.6,0,0,1,0,.23.72.72,0,0,1-.09.2.52.52,0,0,1-.19.17,24.11,24.11,0,0,1-3.84,1.91,1.07,1.07,0,0,1-.27.06.84.84,0,0,1-.27,0,.55.55,0,0,1-.24-.12A.77.77,0,0,1,55.67,98.56Z"/><path class="cls-15" d="M44.87,92.76a2.1,2.1,0,0,1,.48-.58,2.72,2.72,0,0,1,.61-.41,3.29,3.29,0,0,1,.69-.23,3.53,3.53,0,0,1,.72-.08,3.71,3.71,0,0,1,.73.08,3.58,3.58,0,0,1,.7.23c.81.38,1.23.54,2.06.85a3.1,3.1,0,0,1,.66.32,3.61,3.61,0,0,1,.56.46,3.38,3.38,0,0,1,.45.55,2.77,2.77,0,0,1,.31.65,2.6,2.6,0,0,1,.07,1.47l-.26,1a2.12,2.12,0,0,1-.53,1,2.68,2.68,0,0,1-.94.63,3.17,3.17,0,0,1-1.21.21,3.73,3.73,0,0,1-1.31-.23c-1-.38-1.55-.59-2.55-1a3.81,3.81,0,0,1-.78-.46,3.59,3.59,0,0,1-.62-.61,3,3,0,0,1-.44-.7,2.54,2.54,0,0,1-.23-.74,2.25,2.25,0,0,1,.29-1.46C44.55,93.31,44.65,93.12,44.87,92.76Zm.71,1.61a1.33,1.33,0,0,0-.15.63,1.52,1.52,0,0,0,.14.63,1.89,1.89,0,0,0,.41.54,2,2,0,0,0,.62.41c1,.44,1.46.65,2.46,1a2.35,2.35,0,0,0,.7.14,1.9,1.9,0,0,0,.68-.1,1.6,1.6,0,0,0,.54-.34,1.21,1.21,0,0,0,.33-.57l.3-1a1.32,1.32,0,0,0,0-.65,1.58,1.58,0,0,0-.22-.57A1.64,1.64,0,0,0,51,94a1.76,1.76,0,0,0-.57-.31c-.87-.32-1.3-.49-2.15-.88a2.28,2.28,0,0,0-.68-.2,1.58,1.58,0,0,0-.62,0,1.34,1.34,0,0,0-.53.27,1.35,1.35,0,0,0-.4.48Zm.16,1a.49.49,0,0,1,0-.24.42.42,0,0,1,.1-.2.52.52,0,0,1,.19-.14.75.75,0,0,1,.26,0,22.77,22.77,0,0,0,4.21-.51.62.62,0,0,1,.19,0l.18,0a.92.92,0,0,1,.27.16.73.73,0,0,1,.17.26,1,1,0,0,1,0,.24.52.52,0,0,1-.07.21.61.61,0,0,1-.15.17.67.67,0,0,1-.23.1,22.87,22.87,0,0,1-4.31.56.69.69,0,0,1-.28,0,1.15,1.15,0,0,1-.25-.12.85.85,0,0,1-.19-.19A.9.9,0,0,1,45.74,95.42Z"/><circle class="cls-16" cx="88.71" cy="13.59" r="1.52"/><circle class="cls-16" cx="35.13" cy="13.59" r="1.52"/><circle class="cls-16" cx="88.71" cy="106.77" r="1.52"/><path class="cls-17" d="M118,61.19a1.52,1.52,0,1,1-1.52-1.51A1.52,1.52,0,0,1,118,61.19Z"/><path class="cls-17" d="M8.66,61.19a1.52,1.52,0,1,1-3,0,1.52,1.52,0,0,1,3,0Z"/><circle class="cls-16" cx="35.13" cy="106.77" r="1.52"/><text class="cls-18" transform="translate(25.02 77.65)">100</text></g></g></g></svg>