<svg xmlns="http://www.w3.org/2000/svg" xmlns:xlink="http://www.w3.org/1999/xlink" viewBox="0 0 123.15 123.16"><defs><style>.cls-1{isolation:isolate;}.cls-2{fill:url(#Безымянный_градиент_65);}.cls-10,.cls-11,.cls-12,.cls-13,.cls-14,.cls-15,.cls-3,.cls-4,.cls-5,.cls-6,.cls-7,.cls-8,.cls-9{fill-rule:evenodd;}.cls-3{fill:url(#Безымянный_градиент_89);}.cls-4{fill:url(#Безымянный_градиент_389);}.cls-5,.cls-7{opacity:0.88;}.cls-14,.cls-5,.cls-7{mix-blend-mode:multiply;}.cls-5{fill:url(#Безымянный_градиент_62);}.cls-14,.cls-6{opacity:0.5;}.cls-6{mix-blend-mode:screen;fill:url(#Безымянный_градиент_401);}.cls-7{fill:#ffb4c2;}.cls-8{fill:url(#Безымянный_градиент_187);}.cls-9{fill:url(#Безымянный_градиент_187-2);}.cls-10{fill:url(#Безымянный_градиент_187-3);}.cls-11{fill:url(#Безымянный_градиент_187-4);}.cls-12{fill:url(#Безымянный_градиент_187-5);}.cls-13{fill:url(#Безымянный_градиент_187-6);}.cls-14{fill:#22006b;}.cls-15,.cls-16{fill:#ffa700;}</style><radialGradient id="Безымянный_градиент_65" cx="61.58" cy="61.58" r="61.58" gradientTransform="translate(118.4 -4.42) rotate(85.73)" gradientUnits="userSpaceOnUse"><stop offset="0" stop-color="#ffae00"/><stop offset="1" stop-color="#ff9500"/></radialGradient><linearGradient id="Безымянный_градиент_89" x1="61.58" y1="123.16" x2="61.58" y2="0.01" gradientUnits="userSpaceOnUse"><stop offset="0" stop-color="#2c001d"/><stop offset="1" stop-color="#39103e"/></linearGradient><linearGradient id="Безымянный_градиент_389" x1="61.49" y1="63.74" x2="61.64" y2="63.42" gradientUnits="userSpaceOnUse"><stop offset="0" stop-color="#13001d"/><stop offset="1" stop-color="#2f042f"/></linearGradient><linearGradient id="Безымянный_градиент_62" x1="61.58" y1="105.7" x2="61.58" y2="17.46" gradientUnits="userSpaceOnUse"><stop offset="0.45" stop-color="#fff"/><stop offset="0.99" stop-color="#d16845"/></linearGradient><linearGradient id="Безымянный_градиент_401" x1="61.58" y1="105.7" x2="61.58" y2="19.37" gradientUnits="userSpaceOnUse"><stop offset="0" stop-color="#a188b0"/><stop offset="0.01" stop-color="#9880a6"/><stop offset="0.08" stop-color="#74627f"/><stop offset="0.14" stop-color="#55485d"/><stop offset="0.22" stop-color="#3a3140"/><stop offset="0.3" stop-color="#251f28"/><stop offset="0.4" stop-color="#141116"/><stop offset="0.51" stop-color="#090709"/><stop offset="0.66" stop-color="#020202"/><stop offset="0.99"/></linearGradient><linearGradient id="Безымянный_градиент_187" x1="61.58" y1="11.51" x2="61.58" gradientUnits="userSpaceOnUse"><stop offset="0" stop-color="#f9d5d1"/><stop offset="0.06" stop-color="#fad7d2"/><stop offset="0.53" stop-color="#fee3db"/><stop offset="1" stop-color="#ffe7de"/></linearGradient><linearGradient id="Безымянный_градиент_187-2" x1="83.75" y1="124.53" x2="83.75" y2="113.02" gradientTransform="translate(145.33 236.18) rotate(180)" xlink:href="#Безымянный_градиент_187"/><linearGradient id="Безымянный_градиент_187-3" x1="66.14" y1="22.09" x2="66.14" y2="10.59" gradientTransform="matrix(0.52, 0.86, -0.86, 0.52, 89.02, -32.38)" xlink:href="#Безымянный_градиент_187"/><linearGradient id="Безымянный_градиент_187-4" x1="79.96" y1="114.85" x2="79.96" y2="103.34" gradientTransform="matrix(-0.52, -0.86, 0.86, -0.52, -38.03, 215.42)" xlink:href="#Безымянный_градиент_187"/><linearGradient id="Безымянный_градиент_187-5" x1="76.93" y1="22.58" x2="76.93" y2="11.08" gradientTransform="matrix(-0.51, 0.86, -0.86, -0.51, 163.17, 31.96)" xlink:href="#Безымянный_градиент_187"/><linearGradient id="Безымянный_градиент_187-6" x1="68.07" y1="112.37" x2="68.07" y2="100.86" gradientTransform="matrix(0.51, -0.86, 0.86, 0.51, -112.99, 38.14)" xlink:href="#Безымянный_градиент_187"/></defs><g class="cls-1"><g id="Layer_2" data-name="Layer 2"><g id="objects"><circle class="cls-2" cx="61.58" cy="61.58" r="61.58" transform="translate(-4.42 118.4) rotate(-85.73)"/><path class="cls-3" d="M61.23,63.57l-.09,0,.08-.08-.1,0,0-.08-.07,0,0-.1,0,.1-.07,0,0,.08-.1,0,.08.08-.08,0,.08,0-.07.07.09,0h.14l.1,0-.08-.07Zm0,0-.09,0,.08-.08-.1,0,0-.08-.07,0,0-.1,0,.1-.07,0,0,.08-.1,0,.08.08-.08,0,.08,0-.07.07.09,0h.14l.1,0-.08-.07Zm0,0-.09,0,.08-.08-.1,0,0-.08-.07,0,0-.1,0,.1-.07,0,0,.08-.1,0,.08.08-.08,0,.08,0-.07.07.09,0h.14l.1,0-.08-.07Zm0,0-.09,0,.08-.08-.1,0,0-.08-.07,0,0-.1,0,.1-.07,0,0,.08-.1,0,.08.08-.08,0,.08,0-.07.07.09,0h.14l.1,0-.08-.07Zm0,0-.09,0,.08-.08-.1,0,0-.08-.07,0,0-.1,0,.1-.07,0,0,.08-.1,0,.08.08-.08,0,.08,0-.07.07.09,0h.14l.1,0-.08-.07Zm0,0-.09,0,.08-.08-.1,0,0-.08-.07,0,0-.1,0,.1-.07,0,0,.08-.1,0,.08.08-.08,0,.08,0-.07.07.09,0h.14l.1,0-.08-.07Zm59.69-18.45A61.59,61.59,0,0,0,1.84,46.62a61.57,61.57,0,0,0,59.73,76.54,61.61,61.61,0,0,0,59.35-78ZM93,95a45.85,45.85,0,1,1-31.4-79.22A45.8,45.8,0,0,1,107.4,61.58,45.62,45.62,0,0,1,93,95ZM61.14,63.55l.08-.08-.1,0,0-.08-.07,0,0-.1,0,.1-.07,0,0,.08-.1,0,.08.08-.08,0,.08,0-.07.07.09,0h.14l.1,0-.08-.07.09,0Zm.09,0-.09,0,.08-.08-.1,0,0-.08-.07,0,0-.1,0,.1-.07,0,0,.08-.1,0,.08.08-.08,0,.08,0-.07.07.09,0h.14l.1,0-.08-.07Zm0,0-.09,0,.08-.08-.1,0,0-.08-.07,0,0-.1,0,.1-.07,0,0,.08-.1,0,.08.08-.08,0,.08,0-.07.07.09,0h.14l.1,0-.08-.07Zm0,0-.09,0,.08-.08-.1,0,0-.08-.07,0,0-.1,0,.1-.07,0,0,.08-.1,0,.08.08-.08,0,.08,0-.07.07.09,0h.14l.1,0-.08-.07Zm0,0-.09,0,.08-.08-.1,0,0-.08-.07,0,0-.1,0,.1-.07,0,0,.08-.1,0,.08.08-.08,0,.08,0-.07.07.09,0h.14l.1,0-.08-.07Z"/><polygon class="cls-4" points="61.74 63.67 61.64 63.64 61.66 63.72 61.59 63.66 61.57 63.77 61.55 63.67 61.48 63.73 61.5 63.65 61.41 63.67 61.48 63.6 61.4 63.57 61.48 63.55 61.4 63.47 61.5 63.51 61.48 63.43 61.55 63.48 61.57 63.38 61.59 63.48 61.66 63.43 61.64 63.51 61.74 63.47 61.66 63.55 61.75 63.57 61.66 63.6 61.74 63.67"/><path class="cls-5" d="M61.58,17.46A44.12,44.12,0,1,0,105.7,61.58,44.12,44.12,0,0,0,61.58,17.46Zm0,84.25a40.13,40.13,0,1,1,40.13-40.13A40.13,40.13,0,0,1,61.58,101.71Z"/><path class="cls-6" d="M61.58,19.37c-24.37,0-44.12,17.84-44.12,42.21a44.12,44.12,0,0,0,88.24,0C105.7,37.21,85.94,19.37,61.58,19.37Zm-.35,83.39c-22.17,0-39.78-19-39.78-41.18a40.13,40.13,0,0,1,80.26,0C101.71,83.74,83.39,102.76,61.23,102.76Z"/><path class="cls-7" d="M20.63,43.24S33.1,19.37,60.76,19.37s41.77,28,41.77,28S93,17.46,60.76,17.46,20.63,43.24,20.63,43.24Z"/><path class="cls-8" d="M44.62,2.37V9.42s6,2.09,17,2.09c11.31,0,17-2.09,17-2.09v-7A61.83,61.83,0,0,0,44.62,2.37Z"/><path class="cls-9" d="M78.53,120.79v-7.05s-6-2.09-17-2.09c-11.32,0-17,2.09-17,2.09v7A61.74,61.74,0,0,0,78.53,120.79Z"/><path class="cls-10" d="M103.43,16.39l-6,3.66s1.34,6.24,7,15.58C110.26,45.31,115,49.05,115,49.05l6-3.65A61.92,61.92,0,0,0,103.43,16.39Z"/><path class="cls-11" d="M19.72,106.77l6-3.66s-1.35-6.24-7-15.58C12.89,77.85,8.18,74.1,8.18,74.1l-6,3.66A61.92,61.92,0,0,0,19.72,106.77Z"/><path class="cls-12" d="M121.24,76.9l-6.09-3.57s-4.86,4.15-10.38,13.57C99.05,96.66,98,102.59,98,102.59l6.08,3.56A61.86,61.86,0,0,0,121.24,76.9Z"/><path class="cls-13" d="M1.92,46.26,8,49.83s4.85-4.16,10.37-13.58c5.72-9.76,6.78-15.68,6.78-15.68L19.08,17A61.76,61.76,0,0,0,1.92,46.26Z"/><path class="cls-14" d="M2,77.33s12.35,43.88,59.62,43.46c49.72-.45,59.61-44.06,59.61-44.06s-10.38,46.43-59.7,46.43S2,77.33,2,77.33Z"/><text/><text/><path class="cls-15" d="M90.23,13.59a1.52,1.52,0,1,1-1.52-1.52A1.52,1.52,0,0,1,90.23,13.59Z"/><path class="cls-15" d="M36.64,13.59a1.52,1.52,0,1,1-1.51-1.52A1.52,1.52,0,0,1,36.64,13.59Z"/><path class="cls-15" d="M90.23,106.77a1.52,1.52,0,1,1-1.52-1.52A1.52,1.52,0,0,1,90.23,106.77Z"/><path class="cls-15" d="M118,61.19a1.52,1.52,0,1,1-1.52-1.51A1.52,1.52,0,0,1,118,61.19Z"/><path class="cls-15" d="M8.66,61.19a1.52,1.52,0,1,1-3,0,1.52,1.52,0,0,1,3,0Z"/><circle class="cls-16" cx="35.13" cy="106.77" r="1.52"/></g></g></g></svg>